<svg xmlns="http://www.w3.org/2000/svg" width="414" height="99" fill="none"><path fill="#00447C" d="M58.221 75.595c-6.013 5.08-13.762 8.148-22.215 8.148-19.071 0-34.586-15.594-34.586-34.756 0-19.15 15.515-34.732 34.586-34.732 8.63 0 16.523 3.2 22.587 8.469.258-.402.516-.804.785-1.195-6.294-5.413-14.455-8.693-23.372-8.693C16.15 12.836 0 29.056 0 48.993c0 19.955 16.15 36.18 36.006 36.18 8.734 0 16.746-3.143 22.988-8.36-.263-.402-.52-.81-.773-1.218Zm105.756-62.65c-8.837 0-16.935 3.223-23.206 8.55.269.396.532.792.79 1.194 6.042-5.182 13.871-8.32 22.416-8.32 19.077 0 34.597 15.583 34.597 34.745 0 19.161-15.52 34.75-34.597 34.75-8.419 0-16.139-3.04-22.141-8.085-.258.408-.51.816-.773 1.212 6.231 5.183 14.22 8.297 22.92 8.297 19.861 0 36.017-16.226 36.017-36.169-.006-19.948-16.162-36.174-36.023-36.174Z"/><path fill="#00447C" d="M52.677 63.19c-3.991 4.718-9.936 7.722-16.568 7.722-11.992 0-21.746-9.807-21.746-21.856 0-12.043 9.754-21.839 21.746-21.839 6.724 0 12.743 3.08 16.74 7.9.16-.523.332-1.04.504-1.557-4.25-4.757-10.394-7.774-17.244-7.774-12.771 0-23.166 10.434-23.166 23.259 0 12.835 10.389 23.28 23.166 23.28 6.746 0 12.811-2.93 17.055-7.566a41.776 41.776 0 0 1-.487-1.569Z"/><path fill="#00447C" d="M100.092 98.894c-27.221 0-49.367-22.178-49.367-49.441C50.724 22.183 72.87 0 100.091 0c27.215 0 49.355 22.19 49.355 49.453s-22.14 49.44-49.355 49.44Zm0-97.47c-26.436 0-47.947 21.547-47.947 48.029 0 26.475 21.51 48.016 47.947 48.016 26.43 0 47.935-21.54 47.935-48.016 0-26.482-21.505-48.028-47.935-48.028Z"/><path fill="#00447C" d="M163.977 25.936c-6.798 0-12.903 2.976-17.141 7.682.172.517.343 1.034.504 1.557 3.992-4.775 9.965-7.814 16.637-7.814 11.992 0 21.751 9.808 21.751 21.862 0 12.048-9.759 21.85-21.751 21.85-6.621 0-12.548-2.993-16.54-7.699a50.59 50.59 0 0 1-.492 1.575c4.238 4.625 10.291 7.55 17.026 7.55 12.777 0 23.172-10.44 23.172-23.276.006-12.842-10.389-23.287-23.166-23.287Zm-63.885 56.29c-18.086 0-32.8-14.784-32.8-32.957 0-18.156 14.714-32.928 32.8-32.928 18.08 0 32.793 14.772 32.793 32.928 0 18.173-14.713 32.957-32.793 32.957Zm0-64.466c-17.302 0-31.379 14.134-31.379 31.503 0 17.386 14.077 31.538 31.379 31.538 17.301 0 31.372-14.146 31.372-31.538 0-17.369-14.077-31.503-31.372-31.503Z"/><path fill="#00447C" d="m72.734 65.85-.407-1.016c20.033-8.119 35.135-8.251 55.736-.477l-.384 1.022c-20.314-7.658-35.204-7.532-54.945.472Zm59.681-17.173H67.929v1.097h64.486v-1.097ZM100.59 38.513c-8.677 0-17.485-1.885-27.708-5.66l.378-1.028c20.102 7.423 34.661 7.44 53.709.069l.395 1.023c-9.639 3.729-18.143 5.596-26.774 5.596Z"/><path fill="#00447C" d="M99.88 82.019c-8.219-3.43-17.336-12.928-19.174-26.401-1.89-13.864 4.868-27.654 19.025-38.818l.676.862C86.564 28.579 79.955 42.006 81.788 55.468c1.781 13.049 10.584 22.23 18.516 25.54l-.424 1.01Z"/><path fill="#00447C" d="M116.729 76.98c-16.85-5.85-33.916-.511-34.088-.46l-.332-1.045c.172-.058 17.582-5.499 34.775.465l-.355 1.04Zm-16.196-51.165c-10 0-17.726-3.045-17.84-3.091l.407-1.017c.177.069 17.725 6.97 33.984-.345l.447 1c-5.773 2.597-11.707 3.453-16.998 3.453Z"/><path fill="#00447C" d="m100.281 82.025-.418-1.012c7.966-3.303 16.82-12.422 18.63-25.35 1.89-13.496-4.771-27.055-18.745-38.185l.682-.856c14.294 11.382 21.092 25.304 19.151 39.197-1.621 11.566-9.375 22.097-19.3 26.206Z"/><path fill="#00447C" d="M102.268 29.596c-.355-.08-.332.218-.332.218.074.063.08.207.08.207-.08.201-.275.201-.275.201-.063.092-.355.103-.355.103.114.201-.017.408-.017.408-.012.075-.43.224-.43.224l-.532-.7h.469l-.166-.167c.115-.236-.074-.448-.074-.448-.241-.265-.39-.03-.39-.03a.482.482 0 0 1-.177.139c-.31.006-.418.339-.418.339-.012.155-.012.557-.012.557.138.276.103.638.103.638l-.217.126.12.167-.046.11-.149.137c-.16.15.092.511.092.511.366.425-.183 1.196-.183 1.196l.309.16c.235-.063.658-.063.658-.063-.063.172.184.546.184.546.217.339-.109.282-.109.282-.808.287-.722.224-.722.224-.446-.477-1.013.08-1.013.08-.092.092-.355.224-.355.224-.167.006-.098.316-.098.316.046.017.15.27.15.27-.104.167-.018.448-.018.448.086.023.189.259.189.259l-.035.551c-.114.133-.526.776-.526.776-.063.368-.395.718-.395.718-.11.161-.407.742-.407.742-.31.373-.24 1.505-.24 1.505.062.293-.04.97-.04.97l2.193 3.707-3.167 10.285-14.243 5.033 3.31 8.147-.115.505.39.15 1.197 3.034.607-.127c.343 0 .813-.31.813-.31.177-.086.882-.126.882-.126.504.109.813-.282.813-.282.103-.063.808-.35.808-.35.486.126.647-.265.647-.265.097-.109.418-.23.418-.23.338.035.63-.12.63-.12.109-.08.51-.052.51-.052.16.017.612.052.612.052.24-.035.78.103.78.103.154.12.64.282.64.282.207.046.516-.104.516-.104.063-.069.344-.103.344-.103.463-.023.916-.483.916-.483.052-.069.263-.339.263-.339.287-.08.447-.5.447-.5 0-.115.034-.563.034-.563.138-.293-.057-.379-.057-.379-.275-.046-.149-.465-.149-.465.012-.08.373-.466.373-.466.366-.046.458-.638.458-.638.114-.287.744-.655.744-.655.15-.063.768-.051.768-.051.126.115.332 0 .332 0l.39.028c.131.052.498-.114.498-.114.406.114.767-.098.767-.098.235-.115.807.023.807.023.333.103.356-.27.356-.27.063-.161.509-.569.509-.569.201-.092.275-.299.275-.299 0-.046.098-.275.098-.275.274-.196.229-.65.229-.65-.092-.298 0-.718 0-.718.08-.075.126-.442.126-.442.103-.242.612-.759.612-.759.138-.126.59-.465.59-.465.166-.058.871-.293.871-.293.046-.07.412-.161.412-.161.172-.035.573-.144.573-.144.137-.017.618-.115.618-.115.218.207.384.046.384.046.075-.046.395-.028.395-.028a.435.435 0 0 0 .636-.012c.04-.098.246-.184.246-.184.424.046.304-.47.304-.47a3.388 3.388 0 0 1-.184-.369c-.04-.24-.166-.54-.166-.54-.16-.264-.063-.591-.063-.591.109-.294-.063-.489-.063-.489-.148-.195-.149-.505-.149-.505.075-.236.012-.558.012-.558-.12-.454.303-1.086.303-1.086.126-.103.126-.42.126-.42.172-.154.092-.717.092-.717-.092-.678.43-.931.43-.931.366-.029.177-.38.177-.38-.246-.223.138-.505.138-.505.24-.063.538-.626.538-.626.08-.236.618-.276.618-.276.333.138.075.454.075.454-.017.097-.246.425-.246.425-.218.425.601.293.601.293.092-.011.556.017.556.017.555-.04.532-.827.532-.827.029-.287.212-.701.212-.701.275-.247.441-.557.441-.557.08-.242.189-.391.189-.391.349-.31.241-.695.241-.695-.023-.403.269-.558.269-.558.046-.092.343-.373.343-.373.098-.127.367-.42.367-.42.206-.086.487-.448.487-.448.091-.103.257-.253.257-.253.315-.011.315-.19.315-.19.081-.102.407-.35.407-.35.344-.258.447-.838.447-.838 0-.294.057-.477.057-.477.166-.207.263-.454.263-.454.018-.11.178-.414.178-.414.206-.155.315-.43.315-.43.034-.104.166-.449.166-.449.103-.172.252-.408.252-.408.12-.155.269-.471.269-.471.224-.23.229-.5.229-.5.075-.448-.091-.902-.091-.902-.178-.345-.819-.299-.819-.299-.218.046-.464-.011-.464-.011s.011 0-.235-.144c-.246-.15-.647-.603-.647-.603-.183-.086-.378-.425-.378-.425-.052-.213-.39-.69-.39-.69-.12-.207-.504-.638-.504-.638-.217-.12-.383-.465-.383-.465-.109-.126-.487-.632-.487-.632-.057-.247-.344-.477-.344-.477-.177-.103-.309-.333-.309-.333-.114-.575-.361-.575-.361-.575-.16-.04-.28-.16-.28-.16-.247-.219-.642-.167-.642-.167-.246.034-.464-.029-.464-.029-.068-.086-.395-.15-.395-.15-.057.006-.217-.063-.217-.063-.144-.155-.401-.172-.401-.172-.258.023-.711-.075-.711-.075-.28-.114-.819-.247-.819-.247-.641.063-.704-.063-.704-.063-.263-.132-.578-.19-.578-.19-.298-.19-.722-.235-.722-.235a19.473 19.473 0 0 0-.493-.201c-.183-.138-.406-.201-.406-.201a2.102 2.102 0 0 1-.859-.592c-.43-.368-.951-1.155-.951-1.155-.195-.304-.888-1.057-.888-1.057-.2-.23-.572-.862-.572-.862-.075-.322-.413-1.126-.413-1.126s-.097-.305-.126-.437l-.011-.281Z"/><path fill="#00447C" d="M112.823 53.813s-.012-.31.155-.413c0 0 .263-.236.355-.259 0 0 .286-.063.263-.264 0 0-.069-.299.138-.488 0 0 .257-.265.257-.443 0 0 .138-.367.201-.017 0 0 0 .23.057.333 0 0 .097.086.097.196 0 0 .04.19.058.247 0 0 .085.097-.058.074 0 0-.275.035-.412.196 0 0-.04.12-.092.155 0 0-.057.115-.051.218 0 0-.04.086-.12.144 0 0-.069.172-.092.327 0 0-.097.259-.241.334 0 0-.315.178-.355.252 0 0-.12.236-.12-.074-.006-.006-.029-.35-.04-.518Zm-11.809-30.089s-.218.028 0-.219c0 0 .235-.54.464-.362 0 0 .108.23-.035.471 0 0-.131.27.143.179 0 0 .121.034.075-.19 0 0-.034-.19.258-.31 0 0 .171.086.011-.155 0 0-.189-.242.149-.023 0 0 .195.08.092-.132 0 0-.27-.087 0-.15 0 0 .171-.069 0-.184 0 0-.27-.046-.149-.143 0 0 .143-.058.229.091 0 0 .023.127.166.064 0 0 .126.034.126.15 0 0 .069.143.069-.116 0 0 .022-.132.143-.247 0 0-.063.017-.012.161 0 0 .086.362-.08.293l-.212-.029s-.2.03-.132.276c0 0 .149.259.167.362 0 0 .04.31-.235.115 0 0-.229-.184-.372 0 0 0-.018.115.103.155 0 0 0 .132.183.058 0 0 .424-.04.154.408 0 0-.045.172-.011.356 0 0 .063.138-.097.31 0 0-.132.264-.098.643 0 0 0 .253-.246.202 0 0-.218-.07-.155.2 0 0 .063.225.035.288 0 0 0 .126.12.207 0 0-.51.184-.67-.144 0 0-.183-.408-.115-.821 0 0 .104-.862-.034-1.155 0 0-.092-.219-.04-.293 0-.006.069-.15.006-.316Zm.859 3.987s-.012.19-.063.27c0 0 .034.075.114.075 0 0 .161 0 .172-.075 0 0 .057-.2-.069-.281-.005.005-.074-.04-.154.011Zm70.729 23.414c.515.919.784 1.746 1.701 2.148 1.042.489 1.506 1.236 1.827 2.402.137.517.2 1.092.297 1.643.081.558.413 1.138.413 1.667.017.586-.447.884-.51 1.344-.046.54.567.46 1.157.345.584-.115 1.203-.374 1.185-.805-.017-.419-.572-.838-.733-1.298-.108-.253.063-.592.035-.741-.04-.132-.682-.655-.705-.828-.217-1.132-.143-1.476-.097-2.568.023-.575.115-.96-.08-1.511-.161-.414-.842-1.075-1.14-1.402-.733-.822-.269-1.666-.269-2.706 0-.546.092-1.155-.138-1.626-.274-.552-.807-.822.081-.948 1.134-.178 2.13.695 2.21 1.77.184 1.959-.91 5.871 2.234 5.67-.813-.505-1.392-.913-1.294-1.959.097-1.017.647-1.873.67-2.907.068-1.12-.063-1.896-.945-2.637-.825-.701-1.787-1.006-2.847-.736-.653.15-.882.483-1.523.196-.67-.276-.888-.489-1.627-.489-1.26.012-2.267.167-3.436.425-1.002.213-2.033.604-3.104.46-1.042-.144-1.718-.954-2.611-1.408.16.064.378.035.584.046.005-.804-1.266-.936-1.489-1.735.355.195.676.402 1.082.299-.79-.218-1.489-1.592-1.815-2.327.04.293.418.672.733.718.086-.799-1.037-1.827-1.667-2.218.378.236.905.604 1.323.644-.326-.655-1.157-1.586-1.873-1.73.247.087.522.161.796.259-.263-.563-.99-.736-1.557-.96-.464-.206-1.031-.93-1.529-.465-.046-.735-.046-1.356-.304-2.017-.309.471-.779 1.948-1.449 1.741-.114-.574-.653-1.04-.819-1.591.086.42-.235.609-.326.994-.103.42.143.764.114 1.154-.069.753-.882 1.247-1.128 1.977a7.717 7.717 0 0 1-2.027 3.183c.097.259.143 1.034.269 1.195.109.138.922.42 1.128.471 1.483.402.808-1.04 1.22-1.672.481-.758 2.096-.747 2.852-1.154 1.214-.656 1.226-3.052 1.157-2.126-.224 2.373-1.804 2.51-1.804 2.51.744 1.316.578 3.43.429 4.913-.063.764-.378 1.051-.429 1.77 0 0-.264.792.149 1.81-.739.982-1.06 2.102-1.386 3.188-.201.65-.395 1.15-.35 1.827.029.696-.074 1.477-.137 2.19-.046.603-.968 1.108-.458 1.43.395.253 1.374.098 1.855-.144.178-.069.224-.069.155-.631-.029-.196-.521-.3-.55-.8 0-.126.201-.24.212-.39.006-.339-.149-.816-.12-1.385.028-.735.343-1.2.83-1.718.533-.557 1.982-1.717 1.919-1.608.063.356-.08 1.534.584 2.706.372.678.607.925.75 1.655.252 1.246.258 2.04.138 3.372-.063.638-.229.914-.481 1.488-.321.776.223.707.956.54 1.563-.344.905-1 .722-1.97-.041-.184.103-.615.08-.805-.161-1.172-.395-2.12-.395-3.326-.012-1.144.063-1.477.395-2.551.899.247.343.097 1.162.258.653.127.854 0 1.541 0 1.437 0 2.772-.023 4.06-.626.9-.448 1.953-1.322 2.91-.695 1.065.706 1.22 2.189.842 3.212-.338.965-1.014 1.74-1.381 2.711-.2.506-.595.943-.882 1.402-.303.512-.423.994-.211 1.167.91.051 2.033.31 2.09-.747.034-.466-.097-.764.08-1.195.075-.178.269-.178.309-.42.063-.195-.12-.362-.126-.528-.034-.816.579-1.65 1.134-2.218.269-.276.819-.816.928-1.235.086-.414-.137-.897-.092-1.305"/><path fill="#00447C" d="M193.855 50.688c-.138-.132-.739-.557-.739-.736-.034-.281.493-.453.624-.609h.012l-.006-.005s.006 0 .006-.006h-.012c-.131-.15-.647-.328-.624-.62.012-.162.613-.587.739-.719.407-.345 1.374-1.097 1.815-1.89.733-1.264.997-2.62.556-3.804-1.317-3.459-6.655-6.337-6.655-6.337-1.191-.747-.086-1.77-.086-1.77.39-.413 1.426-.7 2.761.494.051-1.626-1.186-2.074-1.678-2.189-.43-.069-2.125-.804-.768-1.752 1.231-1.15-.189-1.075-1.89-2.672 0 0-2.331-3.442-3.591-4.441-.876-.69-2.17-1.69-3.659-2.063 0 0-1.432-.569-4.215.362 0 0 .011-.075-.756-1.385-.768-1.321-3.431-3.326-5.584-3.464 0 0-2.646-.184-4.072.603l-1.042.368s-2.566.327-.774-2.367c0 0-2.336-.04-2.01 2.212 0 0 1.329 2.671-1.907 3.04-1.581.183-2.148 1.677-2.148 1.677-.601 1.275-1.804 2.183-2.955 2.867-.945.557-1.855 1.017-2.686 1.137-.824.127-2.096 0-2.485-.08-.395-.12-1.747-.758-2.262-1.867-.504-1.08-.115-1.96.04-2.35.183-.489 1.162-1.029 1.787-1 .67.012 2.044.339 2.101 1.2.075.851-.653 1.139-1.758 1.219 0 0 .871.638 1.924.511 1.255-.16 1.507-1.178 1.507-1.488-.018-.293-.218-.557-.109-.678.051-.046.704 0 .807 0a2.527 2.527 0 0 0 1.381-.517c.412-.333 1.746-2.143 1.443-3.217 0 0-2.474 3.642-5.521 2.194 0 0-1.758-.546-3.379.701 0 0-1.014.586-1.186 2.109v.833c0 .19-.652-.098-.836-.12-.727-.179-1.615-.03-1.615-.03s2.291.38 3.694 2.029c0 0 .968.764 1.598 1.27.275.413-.189.879-.309 1.235-.138.38.195 1.115 1.168-.017 0 0 .957-1.035 3.574-1.781 2.623-.776 4.06-2.017 5.08-2.724 1.036-.764 2.691-2.55 3.476-3.263.779-.707 3.293-2.54 5.75-2.867 0 0 2.789-.5 3.379.609 0 0-1.243.528-.985 1.327.183.597.956 1.247 1.598 1.339 0 0-.332-.575-.355-1.07-.006-.154.12-.533.292-.689.372-.321 1.134-.413 1.758.288 0 0 1.203 1.488 1.197 2.689 0 0-2.806 2.47-5.458 2.591 0 0-2.514.19-3.276-1.195 0 0-.767-2.132 1.827-1.436.183.04-.492-1.69-1.97-.638 0 0-.407.304-.521.074 0 0-.017-.373.137-.724.344-.677 1.134-1.528 2.451-1.47-3.149-.621-3.419 2.614-3.419 2.614-.561-.161-1.202.023-1.202.023-2.114.753-1.318 2.752-1.318 2.752s1.593-2.321 2.744-.914c.95 1.138 3.218 1.534 4.014 1.569 1.615.063 4.593-.93 6.226-2.488 0 0-.642 1.666-.115 3.034 0 0 .831 2.39 3.912 2.218-1.409 2.183 2.817 5.2 2.817 5.2.676.5 3.912 2.797 3.912 2.797s.762.409.727 1.046c-.876 1.322 1.214 2.7 1.214 2.7l-.286-.476s-.59-1.207-.137-1.718c0 0 1.489-2.523 5.114 1.011.744.712 2.09 2.155 2.09 2.155-1.987-.971-2.583 1.425-2.583 1.425s-.303 1.396.59 1.631c0 0-.143-.316-.189-.66-.046-.276.04-.667.075-.822.177-.799 2.056-1.413 2.399.511.098.632.04 2.029-.452 3.023-.349.654-1.495 1.89-2.715 2.085 0 0-.899.15-1.403-.098 0 0-1.592-.73-1.621-1.861 0 0 .985.856 1.741.73 0 0 .699.069 1.123-.747 0 0-1.604.12-2.033-.833-.178-.62.842-2.046.842-2.046-1.226.115-1.598.885-1.598.885s-.596 1.298-.596-.35c-.005-1.471 1.466-2.356.94-2.276-2.606.368-1.971 3.281-1.971 3.281s.138 1.109 1.581 3.005c0 0 .498.7-.298 1.31h-.011s.006 0 .006.006l-.006.005h.011c.791.61.281 1.31.281 1.31-1.426 1.897-1.569 3-1.569 3s-.63 2.924 1.964 3.298c.533.08-.933-.834-.933-2.293 0-1.655.595-.362.595-.362s.361.787 1.598.908c0 0-1.019-1.43-.842-2.051.401-.954 2.028-.845 2.028-.845-.424-.822-1.117-.741-1.117-.741-.768-.115-1.753.73-1.753.73.029-1.11 1.638-1.862 1.638-1.862.504-.259 1.398-.098 1.398-.098 1.214.207 2.371 1.425 2.708 2.08.51.994.567 2.396.464 3.028-.343 1.914-2.216 1.299-2.394.506-.034-.15-.131-.54-.097-.81.063-.345.195-.678.195-.678-.894.241-.584 1.631-.584 1.631s.607 2.385 2.588 1.443c0 0-1.351 1.425-2.09 2.143-3.642 3.528-5.132 1.017-5.132 1.017-.452-.546.155-1.741.155-1.741l.281-.466s-2.085 1.385-1.209 2.695c.029.66-.733 1.057-.733 1.057s-3.23 2.322-3.917 2.81c0 0-4.221 3.01-2.801 5.194-3.081-.167-3.911 2.218-3.911 2.218-.55 1.367.114 3.04.114 3.04-1.638-1.558-4.616-2.558-6.225-2.494-.819.023-3.07.413-4.015 1.557-1.162 1.407-2.743-.902-2.743-.902s-.807 2 1.317 2.752c0 0 .607.178 1.186.017 0 0 .269 3.24 3.413 2.632-1.323.04-2.107-.81-2.434-1.483-.166-.356-.137-.73-.137-.73.114-.218.498.098.498.098 1.495 1.04 2.176-.7 1.993-.632-2.6.672-1.827-1.46-1.827-1.46.762-1.367 3.27-1.183 3.27-1.183 2.658.12 5.447 2.574 5.447 2.574.017 1.207-1.186 2.706-1.186 2.706-.624.684-1.414.58-1.758.288-.183-.173-.298-.558-.298-.701.017-.5.344-1.075.344-1.075-.659.11-1.415.747-1.587 1.35-.269.8.985 1.328.985 1.328-.584 1.103-3.396.603-3.396.603-2.434-.345-4.959-2.155-5.738-2.89-.779-.701-2.434-2.482-3.471-3.24-1.025-.719-2.468-1.977-5.08-2.73-2.617-.735-3.585-1.77-3.585-1.77-.962-1.143-1.3-.413-1.151-.017.12.357.584.834.309 1.224l-1.598 1.282c-1.397 1.643-3.722 2.01-3.722 2.01s.893.173 1.632-.017c.189-.023.848-.299.848-.115v.828c.154 1.517 1.179 2.12 1.179 2.12 1.616 1.252 3.368.695 3.368.695 3.07-1.448 5.527 2.206 5.527 2.206.309-1.086-1.031-2.89-1.444-3.211-.429-.345-.967-.523-1.391-.523-.092 0-.739.023-.791 0-.126-.132.081-.397.098-.684.011-.31-.252-1.327-1.489-1.494-1.066-.138-1.93.517-1.93.517 1.111.092 1.832.38 1.764 1.23-.058.856-1.438 1.19-2.108 1.195-.613.017-1.604-.506-1.781-1-.172-.39-.538-1.281-.034-2.373.509-1.092 1.861-1.724 2.25-1.838.384-.11 1.678-.224 2.486-.11.842.121 1.758.598 2.697 1.15 1.146.695 2.36 1.591 2.944 2.878 0 0 .573 1.477 2.159 1.672 3.224.368 1.901 3.057 1.901 3.057-.326 2.246 2.022 2.183 2.022 2.183-1.787-2.677.75-2.35.75-2.35l1.071.362c1.426.776 4.055.598 4.055.598 2.165-.138 4.828-2.126 5.59-3.47.761-1.288.761-1.385.761-1.385 2.789.942 4.215.361 4.215.361 1.495-.361 2.778-1.367 3.637-2.056 1.26-1.006 3.614-4.447 3.614-4.447 1.701-1.592 3.121-1.517 1.896-2.678-1.358-.925.32-1.666.744-1.74.493-.11 1.758-.547 1.707-2.184-1.358 1.183-2.371.913-2.772.494 0 0-1.1-1.023.097-1.764 0 0 5.326-2.89 6.644-6.349.452-1.172.171-2.54-.544-3.803-.487-.81-1.426-1.54-1.833-1.885Zm-6.689-15.697c-1.077.345-3.299-.937-5.206-2.275-2.434-1.707-2.045-3.24-2.045-3.24s.447-1.587 1.856-1.46c0 0 2.737.304 2.846 3.838 0 0 .916-.397.458-2.643-.435-2.011-3.281-2.42-3.281-2.42.235-2.728-2.681-2.872-2.681-2.872-.292-.023-.939.08-1.013.218 0 0 1.936.403 2.193 1.592 0 0 .224 1.195-.796 1.5-3.293.982-3.551-2.264-3.551-2.264-.194-1.373 1.163-2.678 2.2-2.873.71-.132 1.947-.034 3.023.396 1.421.598 3.248 2.62 4.307 3.965 1.02 1.419 2.056 3.666 2.48 4.809 1.254 3.32-.79 3.729-.79 3.729Zm.784 32.417c-.435 1.132-1.454 3.395-2.474 4.791-1.065 1.356-2.903 3.385-4.312 3.977-1.088.425-2.314.54-3.018.39-1.043-.19-2.406-1.494-2.2-2.861 0 0 .264-3.246 3.54-2.27 1.031.305.807 1.494.807 1.494-.257 1.201-2.193 1.609-2.193 1.609.068.132.71.224 1.013.19 0 0 2.916-.121 2.675-2.844 0 0 2.858-.397 3.282-2.414.469-2.246-.459-2.671-.459-2.671-.108 3.55-2.834 3.85-2.834 3.85-1.404.149-1.856-1.46-1.856-1.46s-.395-1.523 2.045-3.24c1.889-1.334 4.129-2.603 5.194-2.259 0 0 2.05.42.79 3.718ZM51.704 72.154s-.962-.765-1.604-1.282c-.269-.385.2-.862.315-1.224.15-.39-.194-1.12-1.162.023 0 0-.968 1.029-3.586 1.787-2.617.742-4.06 2.006-5.08 2.707-1.053.78-2.691 2.55-3.464 3.263-.773.718-3.305 2.551-5.767 2.879 0 0-2.784.494-3.362-.61 0 0 1.243-.534.985-1.332-.183-.592-.95-1.241-1.598-1.35 0 0 .338.574.367 1.085 0 .138-.132.535-.315.701-.344.299-1.117.402-1.73-.304 0 0-1.22-1.483-1.203-2.683 0 0 2.79-2.471 5.453-2.586 0 0 2.508-.195 3.27 1.19 0 0 .761 2.137-1.839 1.436-.172-.046.498 1.683 1.999.655 0 0 .39-.334.504-.11 0 0 .023.38-.16.736-.31.66-1.111 1.523-2.423 1.465 3.15.632 3.408-2.608 3.408-2.608.578.137 1.208-.018 1.208-.018 2.113-.764 1.312-2.758 1.312-2.758s-1.587 2.322-2.75.914c-.939-1.132-3.195-1.545-4.02-1.569-1.603-.057-4.576.937-6.208 2.488 0 0 .647-1.666.109-3.028 0 0-.83-2.395-3.917-2.223 1.426-2.183-2.812-5.206-2.812-5.206-.67-.482-3.918-2.804-3.918-2.804s-.767-.39-.71-1.04c.865-1.321-1.231-2.7-1.231-2.7l.292.465s.601 1.201.137 1.741c0 0-1.489 2.5-5.131-1.028-.733-.707-2.079-2.132-2.079-2.132 1.987.943 2.577-1.436 2.577-1.436s.327-1.408-.578-1.65c0 0 .149.34.189.679.046.276-.052.672-.08.816-.19.816-2.04 1.413-2.4-.517-.109-.627-.04-2.023.464-3.023.35-.643 1.489-1.89 2.72-2.062 0 0 .894-.167 1.375.08 0 0 1.632.753 1.655 1.85 0 0-1.008-.839-1.747-.724 0 0-.693-.057-1.117.753 0 0 1.61-.12 2.022.845.166.614-.836 2.04-.836 2.04 1.225-.121 1.592-.891 1.592-.891s.59-1.299.595.356c.012 1.46-1.46 2.373-.945 2.287 2.612-.38 1.982-3.31 1.982-3.31s-.137-1.08-1.563-2.976c0 0-.51-.7.263-1.31h.017c-.005 0-.005-.006-.005-.006l.005-.006h-.017c-.779-.597-.275-1.31-.275-1.31 1.42-1.895 1.575-3.01 1.575-3.01s.63-2.902-1.982-3.28c-.526-.076.945.826.94 2.286-.012 1.66-.596.362-.596.362s-.36-.776-1.586-.902c0 0 1.002 1.425.802 2.034-.378.96-2.005.85-2.005.85.43.816 1.117.736 1.117.736.762.126 1.758-.713 1.758-.713-.023 1.103-1.644 1.839-1.644 1.839-.492.258-1.397.092-1.397.092-1.208-.173-2.365-1.408-2.703-2.075-.51-.994-.579-2.401-.464-3.016.35-1.908 2.205-1.327 2.394-.511.046.143.143.54.08.804-.034.356-.177.684-.177.684.887-.247.578-1.632.578-1.632s-.601-2.396-2.589-1.448c0 0 1.358-1.43 2.09-2.149 3.637-3.533 5.132-1.017 5.132-1.017.447.54-.16 1.735-.16 1.735l-.275.477s2.085-1.39 1.22-2.694c-.046-.655.704-1.07.704-1.07s3.253-2.309 3.94-2.78c0 0 4.227-3.034 2.812-5.211 3.087.166 3.906-2.212 3.906-2.212.544-1.38-.097-3.034-.097-3.034 1.615 1.557 4.604 2.545 6.202 2.488.802-.035 3.081-.431 4.01-1.563 1.173-1.408 2.76.908 2.76.908s.801-1.994-1.318-2.758c0 0-.635-.167-1.208-.012 0 0-.264-3.223-3.402-2.614 1.317-.046 2.108.799 2.428 1.46.172.373.16.73.16.73-.131.24-.515-.087-.515-.087-1.489-1.046-2.17.684-1.987.638 2.589-.672 1.821 1.453 1.821 1.453-.756 1.385-3.27 1.195-3.27 1.195-2.646-.12-5.44-2.597-5.44-2.597-.012-1.189 1.196-2.688 1.196-2.688.602-.696 1.398-.587 1.736-.282.177.15.326.557.315.69-.046.505-.361 1.074-.361 1.074.647-.098 1.426-.736 1.598-1.333.269-.816-.985-1.35-.985-1.35.584-1.086 3.367-.604 3.367-.604 2.463.334 4.971 2.16 5.762 2.885.778.718 2.416 2.482 3.464 3.235 1.02.718 2.457 1.965 5.069 2.734 2.629.747 3.596 1.776 3.596 1.776.962 1.132 1.289.413 1.163.029-.132-.374-.584-.84-.315-1.236.618-.523 1.586-1.293 1.586-1.293 1.415-1.643 3.723-2.016 3.723-2.016s-.9-.167-1.644.023c-.177.028-.836.298-.83.132.011-.293 0-.833 0-.833-.166-1.517-1.186-2.12-1.186-2.12-1.62-1.241-3.384-.701-3.384-.701-3.053 1.465-5.504-2.19-5.504-2.19-.315 1.08 1.008 2.88 1.426 3.207.441.356.956.523 1.392.523.097 0 .75-.04.796.005.109.115-.075.391-.098.684-.017.31.235 1.316 1.495 1.477 1.065.132 1.925-.5 1.925-.5-1.106-.092-1.828-.385-1.759-1.23.052-.862 1.444-1.19 2.114-1.19.618-.028 1.597.506 1.78.995.161.373.539 1.275.035 2.35-.515 1.12-1.855 1.747-2.245 1.867-.39.098-1.684.207-2.503.098-.824-.132-1.752-.592-2.697-1.138-1.146-.69-2.354-1.603-2.927-2.878 0 0-.59-1.489-2.17-1.672-3.23-.374-1.902-3.074-1.902-3.074.344-2.218-2.004-2.19-2.004-2.19 1.775 2.701-.773 2.374-.773 2.374l-1.065-.374c-1.415-.77-4.05-.603-4.05-.603-2.153.15-4.816 2.149-5.583 3.476-.768 1.304-.756 1.373-.756 1.373-2.795-.925-4.215-.362-4.215-.362-1.5.385-2.79 1.396-3.649 2.069-1.265 1.005-3.608 4.441-3.608 4.441-1.695 1.603-3.12 1.523-1.901 2.672 1.363.948-.326 1.677-.75 1.752-.487.11-1.736.569-1.684 2.183 1.34-1.183 2.365-.907 2.749-.488 0 0 1.123 1.029-.08 1.758 0 0-5.332 2.89-6.644 6.35-.435 1.183-.171 2.522.55 3.809.441.792 1.41 1.534 1.81 1.878.143.132.739.563.739.73.028.293-.476.454-.602.615h-.017c0 .005.006.005.012.005 0 0-.006.006-.012.006h.017c.132.167.63.345.619.61-.017.177-.613.608-.745.729-.406.35-1.357 1.092-1.815 1.89-.716 1.27-.985 2.626-.544 3.804 1.306 3.465 6.638 6.343 6.638 6.343 1.208.736.103 1.775.103 1.775-.39.42-1.432.696-2.772-.494-.035 1.62 1.214 2.092 1.69 2.19.417.068 2.107.804.755 1.735-1.231 1.166.2 1.085 1.89 2.671 0 0 2.348 3.448 3.608 4.448.854.683 2.16 1.694 3.654 2.074 0 0 1.426.551 4.21-.374 0 0 0 .086.761 1.39.767 1.322 3.436 3.322 5.584 3.465 0 0 2.646.178 4.072-.615l1.048-.35s2.56-.339.773 2.35c0 0 2.348.052 2.016-2.183 0 0-1.329-2.695 1.901-3.063 1.592-.184 2.16-1.678 2.16-1.678.595-1.28 1.803-2.2 2.932-2.867.956-.563 1.872-1.022 2.697-1.154.813-.115 2.114 0 2.503.091.384.138 1.724.765 2.245 1.873.504 1.075.126 1.96-.023 2.339-.195.5-1.168 1.04-1.787 1.005-.676-.011-2.067-.339-2.119-1.189-.057-.85.67-1.149 1.758-1.235 0 0-.853-.638-1.907-.512-1.254.167-1.523 1.184-1.5 1.489.028.293.212.557.091.672-.04.046-.693 0-.796 0a2.39 2.39 0 0 0-1.368.546c-.43.316-1.764 2.12-1.45 3.2 0 0 2.457-3.648 5.504-2.195 0 0 1.787.54 3.385-.69 0 0 1.025-.608 1.191-2.125 0 0 .006-.558 0-.85-.011-.162.659.114.836.143.745.184 1.638.029 1.638.029s-2.348-.362-3.745-2.028ZM11.769 30.802c.43-1.132 1.45-3.39 2.491-4.78 1.054-1.356 2.881-3.378 4.307-3.982 1.077-.413 2.297-.534 3.013-.373 1.036.172 2.405 1.482 2.21 2.85 0 0-.258 3.252-3.55 2.27-1.026-.323-.814-1.506-.814-1.506.258-1.195 2.2-1.592 2.2-1.592-.07-.15-.722-.235-1.02-.218 0 0-2.898.132-2.68 2.861 0 0-2.835.408-3.27 2.43-.482 2.236.463 2.655.463 2.655.11-3.55 2.824-3.855 2.824-3.855 1.403-.12 1.867 1.453 1.867 1.453s.384 1.534-2.05 3.24c-1.908 1.34-4.112 2.615-5.2 2.276 0 0-2.05-.402-.79-3.729Zm9.81 45.304c-.698.15-1.93.04-3.006-.373-1.432-.609-3.247-2.631-4.307-3.982-1.03-1.402-2.062-3.66-2.497-4.797-1.265-3.31.796-3.723.796-3.723 1.088-.334 3.299.93 5.2 2.275 2.429 1.712 2.062 3.235 2.062 3.235s-.481 1.591-1.867 1.47c0 0-2.732-.316-2.835-3.86 0 0-.94.413-.464 2.654.424 2.022 3.265 2.407 3.265 2.407-.212 2.741 2.691 2.856 2.691 2.856.293.029.94-.058 1.008-.201 0 0-1.941-.397-2.193-1.603 0 0-.218-1.178.807-1.494 3.282-.994 3.54 2.264 3.54 2.264.206 1.39-1.151 2.689-2.2 2.873Z"/><path fill="#00447C" d="M48.903 39.725c-4.404-.166-3.785 2.902-4.719 5.217-1.048 2.684-5.154 1.43-5.595 4.361-.23 1.644-.138 3.132-.069 4.654.097 2.184.034 3.649 1.1 4.976.338.42 1.466 1.23 1.5 1.683.046.334.035.408-.538.489-.12.017-.258-.448-.372-.592-.058-.098.326.609.217.609-.48 0-1.935-.092-2.016-.19-.24-.24.11.098.012-.35-.012-.04.069-.828.069-.885-.023-.075-.344-.598-.356-.672-.217-.925-.48-1.77-.59-2.54-.217-1.51-.64-3.913-1.609-5.217-.612-.827-.303-.747-.819.052-.378.626-.75 2.43-1.076 3.24-.47 1.098-1.037 2.534-.493 3.793.097.224.573 1.103.813 1.413.184.236.327.39.493.672.16.23-.046.27-.493.35-.086.03-.406-.528-.504-.505-.114.023.298.615.184.626-.79.04-2.05.023-2.05-.224 0-.184.074-.172.074-.557 0-.103.166-.397.235-.43.257-.104.034-.834.034-.955.034-1.379.086-3.936.229-4.62.246-1.212 0-2.677-.292-4.061-.28-.087-.83.477-3.476.333-.636-.035-1.157-.517-1.42.057-.258.523-.585 1.15-.665 1.695-.103.902-.555 1.747-.71 2.488-.132.684-.035 1.787.154 2.482.058.19.241.667.281 1.264.012.322.246.759.453.971.274.293.927.282.916.65 0 .178.132.655-.178.683-.068.017-.131.04-.229.058-.131.011-.217-.535-.4-.535-.104 0 .246.512.137.517-.481.006-1.564.047-1.804-.097-.126-.31-.029-.15-.029-.62-.08-.162.298-.483.246-.661-.051-.127-.126-.701-.154-.845-.321-1.126-.642-4.062-.693-4.556-.15-1.16-.15-1.885-.029-3.045.092-.931.08-.202 0 0-.132.66.029.643-.166 1.263-.235.822-.51.891-1.489 1.787-.67.615-.79 1.718-1.054 2.62-.286.966-.235 1.207.092 1.805.034.114.452.51.527.643.149.27.28.546.275.73-.012.19-.315.293-.476.379-.103.057-.326-.54-.326-.54-.143.029.464.54.326.54-.452.017-1.5.092-1.798-.017-.298-.115-.218-.184-.177-1.034.017-.184.343-.57.36-.759.018-.166-.12-.494-.091-.65.303-1.493.962-4.067 1.575-5.314.704-1.43-.035-3.246.194-4.82.258-1.764 1.174-2.5 2.371-3.752.424-.454 1.117-.977 1.398-1.529.343-.735-.029-1.58.43-2.28.131-.196.555-.322.698-.564.218-.362.046-.672.189-1.063.366-.919 1.002-.942 1.924-.942 1.638-.012 3.219-.132 4.725-.264 1.466-.144 3.242-.15 3.992 1.252.676 1.264.109 2.976.544 4.298.332 1.057 1.506 2.723 2.737 1.551.922-.89.974-2.919 1.089-4.027.068-.805.189-1.38.504-2.097.177-.397.257-.61.349-1.012.069-.241-.642-.793-.47-1.126.55-.023.682-.086 1.438.253.383.172.83.626 1.128.678 1.237.247 3.058.592 4.123 1.264 0 0 .115 1.028-.572.925.034 0 .412.644-.138.626Zm15.704 4.281c.023-1.529-.687-1.896-.762-2.207-.069-.35.378-.913.332-1.82-.023-.995-.67-1.426-1.237-1.862 0 0-.43-2.724 1.667-3.184 0 0-2.88.34-3.035 2.747-3.568-.167-3.557 2.545-3.557 2.545-.057 1.04-.4 1.103-1.191 1.643 0 0 1.477-.252 1.838-1.103.613-1.361 1.558-1.959 2.555-1.844.418.046 1.174.166 1.563.982.292.598-.28 1.925-.424 2.178-.366.609-.922 2.086-.922 3.091-.017 1.006.19 1.678.19 1.678s.12.563-.173.758c-.532.357-1.03.5-2.096.431-1.78-.103-2.4-.994-2.497-1.488-.458-2.281 2.892-2.402 2.892-.586 0 .575-1.093 1.115-1.093 1.115 1.202 0 1.7-.54 1.7-.54s1.008-1.155-.252-1.948c0 0 .573-.483.642-.983.24-1.465-1.008-2.108-1.008-2.108s.618 1.367-.12 1.988c-.292.253-1.226.356-1.885.672-.584.281-2.044.586-1.912 2.258.114 1.666 1.89 2 3.138 2.045 0 0 1.3-.023 1.712-.16 0 0 2.274-.46 2.056.976.218 1.442-2.056.977-2.056.977-.412-.144-1.712-.155-1.712-.155-1.254.034-3.024.362-3.138 2.057-.132 1.654 1.328 1.965 1.912 2.24.653.345 1.593.437 1.885.696.744.609.12 1.976.12 1.976s1.248-.632 1.008-2.103c-.069-.505-.642-.994-.642-.994 1.26-.798.252-1.913.252-1.913s-.498-.574-1.7-.574c0 0 1.093.557 1.093 1.12 0 1.833-3.35 1.7-2.892-.586.098-.494.716-1.39 2.497-1.483 1.065-.08 1.564.058 2.096.426.292.19.172.758.172.758s-.206.655-.189 1.666c0 1.012.556 2.494.922 3.103.143.247.716 1.569.424 2.178-.39.816-1.151.953-1.563.994-.991.097-1.942-.494-2.555-1.88-.36-.832-1.838-1.08-1.838-1.08.784.523 1.134.615 1.191 1.638 0 0-.011 2.718 3.556 2.54.155 2.419 3.036 2.752 3.036 2.752-2.096-.443-1.667-3.189-1.667-3.189.562-.425 1.209-.856 1.237-1.862.052-.902-.4-1.47-.332-1.81.075-.316.785-.678.762-2.206-.012-.908-.344-2.355-.888-3.074-.567-.706-.011-1.396-.011-1.396l.578-.804h.012l-.012-.012.012-.005h-.012l-.578-.816s-.556-.69.011-1.385c.544-.712.882-2.155.888-3.068Zm-1.363 11.916c-2.257-1.735-.458-4.137-.458-4.137 2.222 2.115.458 4.137.458 4.137Zm-.458-9.135s-1.799-2.39.458-4.149c0 0 1.764 2.034-.458 4.149Zm78.099 3.43s-1.305.011-1.718.166c0 0-2.285.46-2.05-.994-.235-1.436 2.05-.982 2.05-.982.413.15 1.718.16 1.718.16 1.243-.028 3.036-.367 3.122-2.027.149-1.69-1.323-1.988-1.885-2.258-.67-.322-1.609-.431-1.884-.69-.733-.603-.137-1.976-.137-1.976s-1.237.626-1.014 2.114c.086.488.659.971.659.971-1.249.793-.252 1.925-.252 1.925s.504.557 1.701.557c0 0-1.1-.551-1.1-1.12 0-1.816 3.368-1.707 2.904.58-.098.5-.71 1.39-2.514 1.505-1.06.046-1.57-.092-2.097-.436-.286-.184-.177-.776-.177-.776s.218-.655.2-1.66c0-1-.561-2.477-.922-3.092-.154-.264-.698-1.574-.418-2.171.384-.816 1.128-.954 1.564-1 .996-.098 1.924.494 2.542 1.861.373.84 1.856 1.104 1.856 1.104-.796-.54-1.14-.615-1.191-1.644 0 0 .011-2.723-3.568-2.54-.155-2.424-3.024-2.757-3.024-2.757 2.085.454 1.667 3.189 1.667 3.189-.573.413-1.209.861-1.249 1.844-.029.914.412 1.47.344 1.816-.069.327-.791.695-.785 2.217.023.908.349 2.362.888 3.069.595.712.028 1.39.028 1.39l-.589.822h-.006l.006.005-.006.006h.006l.589.816s.562.69-.028 1.39c-.539.719-.865 2.167-.888 3.074-.006 1.535.716 1.902.785 2.212.063.328-.373.902-.344 1.822.04.982.67 1.425 1.249 1.861 0 0 .418 2.73-1.667 3.16 0 0 2.869-.304 3.024-2.729 3.579.173 3.568-2.533 3.568-2.533.051-1.04.395-1.132 1.191-1.65 0 0-1.483.248-1.856 1.11-.618 1.344-1.552 1.959-2.542 1.844-.43-.035-1.174-.173-1.564-.983-.28-.609.264-1.93.418-2.189.355-.603.922-2.086.922-3.091.018-.983-.2-1.672-.2-1.672s-.115-.563.177-.764c.527-.356 1.037-.494 2.097-.431 1.804.115 2.411.988 2.514 1.488.458 2.287-2.904 2.425-2.904.592 0-.563 1.1-1.12 1.1-1.12-1.197 0-1.701.568-1.701.568s-.997 1.138.252 1.92c0 0-.573.493-.659 1.005-.217 1.46 1.014 2.086 1.014 2.086s-.596-1.362.137-1.965c.275-.265 1.22-.374 1.884-.69.562-.282 2.034-.598 1.885-2.247-.086-1.683-1.879-2.045-3.122-2.062Zm-4.278-7.47c2.268 1.759.47 4.143.47 4.143-2.228-2.109-.47-4.142-.47-4.142Zm0 13.284s-1.758-2.022.47-4.136c0 0 1.798 2.395-.47 4.136ZM73.913 15.37l4.582 1.356-6.294 4.975c-.069.04-.4-.023-.452-.075-.023-.028 0-.091.08-.149.12-.103.16-.195.212-.27.023-.075.057-.172.08-.264a.53.53 0 0 1 .189-.219l.137-.074c.046-.017.046-.046.029-.07l-.052-.108a.61.61 0 0 1-.091-.425c.04-.15.046-.219.086-.236.028-.012.063 0 .131.04a.373.373 0 0 0 .224.11c.103.01.223-.04.378-.127l3.665-2.706-3.001-.925c-.31-.07-.487-.121-.567-.173a.963.963 0 0 1-.515-.442c-.08-.138-.138-.454-.178-.983-.034-.528-.114-.879-.212-1.034l-.091-.15c-.018-.04-.023-.062.017-.08l.091.018 6.672 2.085.172-.034.413.724-.27.166c.264.087-1.775-.678-5.979-1.78.029.344.052.54.098.597.057.109.217.195.446.252Zm2.251 5.061a.478.478 0 0 1-.366.075.455.455 0 0 1-.287-.23.508.508 0 0 1-.074-.39c.04-.115.097-.224.206-.288a.503.503 0 0 1 .378-.046.45.45 0 0 1 .28.219.496.496 0 0 1 .064.385.363.363 0 0 1-.2.275Zm.968-.586c-.115.058-.23.087-.36.035a.486.486 0 0 1-.293-.201.49.49 0 0 1-.069-.38c.023-.126.11-.223.224-.298a.387.387 0 0 1 .343-.058c.132.046.23.11.31.224.068.11.097.236.051.38a.578.578 0 0 1-.206.298Z"/><path fill="#00447C" d="m79.509 16.18-.338-.764 4.616-2.184-.275-.666c-.086-.213-.183-.316-.304-.265-.017.03-.063.052-.114.121a.379.379 0 0 1-.138.12c-.034.018-.091 0-.126-.091-.046-.115-.017-.242.046-.385.04-.063.12-.144.264-.264.085-.08.131-.144.114-.184a.65.65 0 0 0-.057-.115c-.017-.04-.04-.075-.052-.104-.034-.08-.034-.212.017-.396.035-.213.052-.34.058-.368 0-.046-.006-.15-.04-.299-.018-.08 0-.138.034-.155.057-.023.092 0 .12.07l1.472 3.424-5.297 2.505Zm4.873-.443c-.131.063-.257.046-.39.006-.13-.075-.228-.155-.28-.287a.493.493 0 0 1-.005-.402.454.454 0 0 1 .263-.27.552.552 0 0 1 .395-.012.518.518 0 0 1 .264.276.524.524 0 0 1 .017.425.46.46 0 0 1-.264.264Zm2.286-.172c-.401.11-.613.115-.653.006-.006-.092.108-.184.389-.305.36-.132.636-.293.808-.482.532-.523.675-1.12.48-1.816a.992.992 0 0 0-.486-.598c-.23-.155-.453-.2-.665-.138a1.38 1.38 0 0 0-.183.08c-.08.041-.137.058-.177.076-.046.005-.075-.023-.098-.087-.04-.143.023-.316.184-.523.166-.212.246-.31.234-.344a1.328 1.328 0 0 1-.045-.155c-.029-.08-.04-.138-.052-.167a1.41 1.41 0 0 1 .006-.638c.034-.252.103-.413.189-.413 0 0 .023.017.04.069.011.028.029.086.046.166.005.092.017.127.034.178.057.23.212.477.464.65.235.195.447.373.664.563.264.27.458.591.573.988.24.798.126 1.482-.332 2.01-.332.386-.813.69-1.42.88Z"/><path fill="#00447C" d="m91.198 12.307-2.91.563-.171-.867 2.525-.495c.063-.063.132-.155.235-.212.109-.092.183-.167.246-.224a2.58 2.58 0 0 0-.561-.23 2.187 2.187 0 0 0-.773.006 4.178 4.178 0 0 0-.16.057 1.523 1.523 0 0 0-.167.063c-.051.012-.086-.017-.097-.057-.04-.213.046-.454.263-.741.103-.138.304-.34.63-.62.23-.242.321-.38.321-.443.006-.017-.017-.08-.046-.132-.023-.07-.04-.11-.051-.144-.046-.195.011-.43.166-.666.097-.15.206-.276.286-.397a1.23 1.23 0 0 0 .017-.414c-.023-.143.006-.224.075-.252.051 0 .103.069.126.206.051.202.109.305.16.368.166.155.327.31.504.448.206.155.332.368.395.615-.017.017 0 .063 0 .115-.005.04-.017.086-.017.086.017.063.109.12.252.138.246.058.527.155.779.316.452.282.704.529.739.741.011.052-.012.075-.092.087-.034.005-.097.005-.212.023a4.9 4.9 0 0 1-.206.034c-.326.08-.71.281-1.105.638a.473.473 0 0 0 .257.08c.104.023.184.063.258.098l1.443-.276.19.873-1.862.345c-.172-.23-.258-.356-.32-.39-.035-.047-.224-.167-.51-.363a4.305 4.305 0 0 0-.607 1.023Zm-.07-2.924a.255.255 0 0 0 .052.092c.018.051.035.091.04.114 0 .052-.063.11-.211.225-.138.114-.281.212-.436.327a3.95 3.95 0 0 1 1.089.31 9.38 9.38 0 0 1 .819-.592c-.052-.023-.132-.045-.218-.097-.035-.017-.172-.035-.395-.086-.08-.03-.132-.058-.138-.133-.011-.028-.011-.063-.011-.132-.006-.074.006-.12 0-.149-.035-.167-.172-.345-.413-.529-.148.259-.206.483-.177.65Z"/><path fill="#00447C" d="m94.256 11.79-.092-.873 1.924-.155-.446-4.545c-.04-.247-.126-.356-.315-.356-.023 0-.075.017-.115.074-.057.023-.091.04-.12.046-.057.012-.086-.017-.086-.074a.464.464 0 0 1 .12-.374c.08-.069.19-.144.355-.224.132-.069.195-.115.212-.15.24-.746.378-1.126.407-1.137.046-.006.097.046.097.16l.745 7.395-2.686.213Zm4.811-.304-.762.022-.264-5.43c0-.212-.08-.35-.177-.344a.523.523 0 0 0-.155.058c-.069.057-.109.069-.16.057-.052.012-.086-.029-.086-.098a.396.396 0 0 1 .178-.367c.051-.035.166-.075.349-.138.12-.058.183-.098.189-.144-.006-.029-.023-.063-.04-.12 0-.047 0-.092-.017-.127a.504.504 0 0 1 .137-.339c.12-.195.166-.304.206-.339 0-.017.012-.103.063-.27-.006-.086.046-.115.075-.115.08-.006.103.023.091.092l.373 7.601Zm4.134-3.092a.545.545 0 0 0-.045-.2c-.166.131-.315.189-.43.172-.149 0-.246-.058-.355-.173a.61.61 0 0 1-.115-.367.598.598 0 0 1 .149-.345.575.575 0 0 1 .367-.12c.2.022.349.131.47.32.12.19.171.409.16.633-.017.35-.149.678-.39 1.028-.234.305-.452.57-.67.856-.252.351-.378.707-.395 1.046-.034.437.075.805.344 1.144.258.367.607.557 1.065.591.395.04.733-.08 1.008-.321.298-.247.435-.563.464-.937a1.884 1.884 0 0 0-.229-1.086c-.183-.339-.418-.517-.699-.546a.311.311 0 0 0-.16.029.606.606 0 0 1-.149 0c-.08 0-.103-.034-.115-.098.012-.086.075-.2.201-.31.131-.103.263-.15.383-.138h.121c.091.012.137-.029.143-.12.006-.023 0-.046.017-.08a.077.077 0 0 1 .017-.07c.006-.27.086-.494.264-.718.177-.218.338-.34.458-.322.046-.006.051.017.063.04a.62.62 0 0 1-.138.219c-.074.138-.103.276-.131.402-.012.236.057.494.189.793.257.551.389.822.406.879.138.385.178.764.161 1.178-.046.66-.269 1.155-.665 1.534-.389.385-.882.534-1.42.488-.578-.046-1.059-.316-1.449-.793a2.272 2.272 0 0 1-.515-1.637c.011-.397.171-.805.435-1.184.258-.316.504-.609.767-.93.258-.31.401-.615.418-.857Zm4.994 3.867-1.334-.218.71-5.367c.035-.218 0-.344-.091-.362-.046-.011-.109 0-.189.006a.468.468 0 0 1-.166.035c-.041-.006-.058-.04-.052-.115.011-.15.097-.253.246-.305.058-.034.178-.063.344-.092.137-.023.2-.063.2-.109.017-.046.006-.063.006-.126-.011-.063-.006-.104-.006-.104a.55.55 0 0 1 .218-.339c.137-.16.218-.247.258-.293 0-.011.045-.092.108-.241.023-.08.069-.126.115-.115.052.012.063.052.057.115l-.859 6.66.556.091-.121.88Z"/><path fill="#00447C" d="m107.984 12.18.166-.861 1.557.362c.178-.282.384-.511.63-.66.218-.116.298-.202.321-.214a.264.264 0 0 0 0-.132c-.011-.04 0-.074.006-.115a.666.666 0 0 1 .206-.373c.103-.075.16-.098.206-.098.029.006.04.04.046.12a.508.508 0 0 0 .006.236c.074.207.229.368.452.546.286.207.47.38.561.529.235.305.321.603.281.885l-.115.62c-.063.201-.206.385-.458.535-.143.057-.292.137-.458.218-.057.034-.16.172-.298.442-.114.196-.2.293-.292.3-.051-.03-.074-.093-.051-.208a.691.691 0 0 0-.143-.42 1.634 1.634 0 0 0-.31-.27 1.225 1.225 0 0 1-.332-.332c-.143-.161-.246-.42-.344-.73l-1.637-.38Zm3.562.277a.585.585 0 0 0-.447-.69.655.655 0 0 0-.429.075.567.567 0 0 0-.23.356c-.017.15 0 .293.086.437a.552.552 0 0 0 .361.247c.149.04.286.011.43-.058.131-.098.183-.218.229-.367Zm4.272-3.511v-.287c.321.069.487.115.487.115.092.005.223.005.401-.023l.126-.07c-.372-.126-.527-.338-.441-.626.057-.224.235-.344.55-.31.303.138.412.38.338.678-.167.54-.665.718-1.461.523Z"/><path fill="#00447C" d="m112.13 13.094.246-.839 1.512.529c.12.04.195.034.218-.023.011-.006 0-.103-.023-.299a1.326 1.326 0 0 1 .057-.569c.195-.632.596-.976 1.197-1.04.401.018.813.024 1.22.04.366-.086.618-.344.744-.746l.058-.155c.005-.058.045-.087.086-.07.04.024.074.064.074.173 0 .11-.011.19-.052.299-.085.247-.177.46-.297.603a.992.992 0 0 1-.31.27.811.811 0 0 0-.183.167c.006.029.035.109.098.287.08.172.097.333.057.511-.04.08-.052.104-.086.098-.218-.345-.43-.546-.624-.626a.794.794 0 0 0-.676.069.899.899 0 0 0-.407.528.828.828 0 0 0 .069.701.92.92 0 0 0 .51.408.678.678 0 0 0 .475.012c.097-.035.206-.092.321-.184.103-.092.172-.115.177-.104.092.018.098.144.035.357a1.045 1.045 0 0 0-.103.218c-.058.08-.081.144-.081.144-.017.046.006.08.046.115.04 0 .069.011.103.028.075.006.086.023.103.035.109.034.195.12.281.247.086.172.212.287.263.333a.665.665 0 0 0 .161.11c.051.034.068.074.057.12-.023.08-.086.075-.2.034l-5.126-1.78Zm16.998.535-3.883 6.033-5.475-3.838c-.109-.087-.178-.156-.138-.196.023-.046.069-.04.155-.006.149.064.275.104.389.115.069 0 .149-.023.247-.011.08-.012.189.028.292.086 0 0 .034.034.051.057.04.018.069.04.081.035.051.034.08.029.143-.035.08-.103.154-.166.177-.195.206-.155.355-.207.441-.138.035.017.04.063.012.144-.023.086-.012.178-.012.247.023.098.103.178.212.281l3.265 2.281 2.319-3.585a1.08 1.08 0 0 0 .126-.281.317.317 0 0 0-.132-.173c-.028-.028-.057-.034-.114-.051-.058-.012-.092-.018-.103-.035-.052-.034-.04-.04-.018-.075.092-.155.258-.195.533-.132.246.052.384.052.401.029.017-.017.04-.057.074-.086a.256.256 0 0 1 .052-.086c.057-.08.229-.207.51-.397.315-.184.464-.264.475-.253.046.023.023.121-.08.265Zm-4.433 3.09c-.017.041-.057.035-.12-.017l-2.451-1.706c-.103-.063-.144-.126-.115-.184 0 0 .109 0 .332.023l.304.035c.023.011.028.023.046.04.034 0 .034.017.063.011.028.04.08-.023.194-.12.092-.098.161-.132.218-.086.017 0 .034.069.011.19-.011.097.052.2.189.286l.115.08c.023-.235.052-.378.115-.476.16-.23.389-.316.715-.276.195.052.413.127.63.178a.762.762 0 0 0 .441-.2c.138-.116.195-.156.218-.156.046.04.023.127-.074.259-.115.155-.321.316-.63.442 0 0-.018.063-.018.16a.777.777 0 0 1-.051.23c-.052.053-.086.064-.115.035-.023 0-.034-.057-.046-.143a.325.325 0 0 0-.16-.23.28.28 0 0 0-.263-.046.27.27 0 0 0-.247.15c-.137.2-.097.367.132.528a.36.36 0 0 0 .275.057h.155c.017.018.057.167.114.471.035.3.052.443.023.466Z"/><path fill="#00447C" d="m125.033 19.644.544-.672 1.93 1.69.378-.466c.126-.155.132-.27.034-.374-.028-.005-.063-.034-.126-.051-.063-.018-.097-.035-.114-.075-.029-.029-.035-.058-.012-.086.126-.144.31-.173.59-.115.264.086.436.069.487-.006l.132-.15c.006-.016.177-.097.469-.246.31-.138.47-.19.482-.184.045.029.045.086-.006.138l-2.268 2.775-2.52-2.178Zm4.839-1.43a.683.683 0 0 1-.194-.362.524.524 0 0 1 .126-.38c.068-.12.2-.172.326-.183.149-.012.252.04.367.12a.479.479 0 0 1 .166.345.523.523 0 0 1-.115.39.672.672 0 0 1-.338.196.523.523 0 0 1-.338-.126Z"/><path fill="#00447C" d="M127.771 24.425a.495.495 0 0 1-.149-.368.841.841 0 0 1 .137-.38.454.454 0 0 1 .349-.149c.132 0 .264.046.361.138a.523.523 0 0 1 .149.357.48.48 0 0 1-.154.373.444.444 0 0 1-.35.172.515.515 0 0 1-.343-.143Zm-.396-2.77.562-.597 1.832 1.85.487-.494c.155-.173.201-.288.109-.357-.023-.034-.063-.063-.143-.091a.416.416 0 0 1-.149-.092c-.023-.03-.023-.08.023-.121.103-.11.217-.138.361-.127.068.03.183.087.349.161.103.064.177.07.212.04.011-.028.046-.045.091-.103.018-.046.035-.063.052-.086.063-.057.177-.11.355-.132.195-.046.326-.052.378-.07.017-.028.086-.062.229-.148.057-.046.115-.052.143 0 .04.023.035.063-.011.114l-2.48 2.66-2.4-2.407ZM69.71 80.669c-.487-.437-.67-.994-.556-1.672.109-.673.504-1.402 1.186-2.115.664-.73 1.351-1.19 2.038-1.35.653-.15 1.243-.029 1.736.43.492.45.675 1.024.567 1.684-.11.69-.499 1.385-1.186 2.109-.693.753-1.357 1.212-2.033 1.368-.664.166-1.254 0-1.752-.454Zm.309-.282c.395.356 1.248-.144 2.56-1.534 1.231-1.367 1.655-2.224 1.248-2.58-.39-.379-1.237.127-2.497 1.494-1.288 1.379-1.706 2.258-1.311 2.62Zm5.641-2.781 1.752 1.201-1.008 3.723 3.248-2.177 1.495 1.04-.224.321c-.246-.172-.4-.224-.51-.172-.091.052-.263.224-.446.523l-2.125 3.034c-.2.275-.32.476-.332.58-.029.109.08.258.332.42l-.24.315-1.873-1.31.223-.31c.264.184.453.178.584-.017l.304-.391 2.188-3.114-3.695 2.465-.429-.299 1.14-4.315-2.217 3.177-.269.408c-.132.184-.069.38.178.552l-.224.333-1.363-.97.207-.317c.24.161.406.224.498.161.091-.052.24-.213.464-.506l2.113-3.022c.2-.293.32-.5.338-.609.017-.109-.086-.264-.332-.396l.223-.328Zm2.2 8.906.177-.362.137.046c.12.034.275-.023.481-.213l.28-.293 3.752-3.792.372.172-.859 5.275-.068.5c-.023.23.051.408.217.505l-.172.34-1.912-.977.16-.362c.28.132.435.16.487.034.028-.052.074-.276.126-.638l.091-.534-1.431-.718-.373.39c-.263.248-.406.397-.435.495-.074.092.029.2.224.299l-.19.356-1.065-.523Zm2.124-1.299 1.22.604.338-2.184-1.558 1.58Zm6.403 5.091-1.438-4.981-1.013 2.74-.132.454c-.097.23.028.39.406.529l-.131.339-1.684-.58.143-.374c.27.092.447.115.527.034.075-.074.178-.275.315-.614l1.277-3.454c.12-.339.166-.557.16-.672-.01-.115-.16-.207-.412-.316l.132-.362 1.122.403 1.426 4.975 1.02-2.78.166-.466c.086-.218-.069-.38-.407-.523l.12-.362 1.679.592-.138.368c-.338-.115-.555-.087-.63.132l-.2.465-1.73 4.637-.578-.184Zm3.785 1.034.07-.396.154.011c.103-.005.246-.109.378-.344l.194-.362 2.463-4.723.384.063.75 5.28.075.488c.057.23.183.374.366.414l-.057.385-2.136-.368.074-.379c.292.052.452.012.47-.109.011-.086-.006-.299-.046-.65l-.092-.545-1.598-.259-.246.472c-.177.316-.252.528-.28.603-.018.115.091.207.332.235l-.086.391-1.169-.207Zm1.644-1.856 1.323.219-.298-2.172-1.025 1.953Zm3.322 2.701.011-.402c.384.028.573-.104.596-.305l.046-.494.223-3.671.017-.495c.006-.235-.16-.344-.532-.379l.028-.39 1.81.091.229.023.332-.011.338.011c1.123.07 1.66.598 1.598 1.592-.057.81-.435 1.333-1.14 1.586l.716 1.919c.172.454.367.718.601.787l-.04.385-1.397-.08-1.065-2.862-.395-.023-.092 1.569-.017.5c-.017.132.011.224.04.252.046.035.183.087.412.11l-.034.385-2.285-.098Zm2.164-5.63-.154 2.533.2.006c.773.046 1.186-.391 1.237-1.316.063-.776-.257-1.155-.945-1.207l-.338-.017Zm2.784 5.877-.029-.385.132-.011c.126-.04.229-.19.303-.443l.126-.396 1.323-5.148.39-.018 1.93 4.953.189.46c.103.235.246.333.447.316l.034.402-2.176.109-.029-.39c.304-.012.458-.075.452-.196-.005-.098-.08-.287-.2-.626l-.206-.506-1.615.11-.126.528c-.098.333-.132.546-.132.632-.006.115.126.178.367.16l.017.397-1.197.052Zm1.18-2.19 1.34-.05-.802-2.052-.538 2.103Zm3.906 1.903-.069-.391c.361-.075.521-.207.487-.437l-.058-.488-.618-3.626-.092-.482c-.034-.213-.24-.299-.613-.236l-.063-.38 2.583-.447c1.083-.19 1.707.16 1.867 1.074.103.695-.229 1.293-1.059 1.81 1.076.046 1.695.488 1.844 1.31.155 1-.384 1.615-1.592 1.833l-2.617.46Zm1.294-3.224.292 1.678c.051.362.109.598.177.678.075.086.241.11.447.057.567-.074.762-.528.63-1.315-.155-.874-.63-1.253-1.426-1.115l-.12.017Zm-.075-.379.115-.029c.75-.114 1.037-.58.905-1.413-.138-.753-.573-1.063-1.335-.93l-.063.01.378 2.362Zm6.174 2.063-.137-.362c.366-.132.504-.305.406-.517l-.126-.472-1.202-3.464-.184-.454c-.091-.213-.292-.264-.658-.126l-.121-.374 2.469-.879c1.036-.362 1.724-.115 2.01.747.252.678.006 1.31-.716 1.954 1.071-.121 1.747.2 2.022 1 .332.959-.069 1.654-1.249 2.068l-2.514.879Zm.613-3.752.114-.04c.693-.242.9-.753.648-1.523-.27-.741-.768-.97-1.489-.724l-.075.023.802 2.264Zm.132.38.555 1.608c.12.345.218.551.298.626.092.075.246.058.452-.006.539-.184.676-.649.413-1.407-.321-.845-.842-1.132-1.61-.856l-.108.034Zm3.888 1.734-.16-.362.12-.074c.086-.075.143-.236.103-.517l-.046-.403-.756-5.234.35-.178 3.711 3.832.355.34c.183.177.361.2.544.137l.155.35-1.947.943-.172-.34c.269-.131.366-.258.326-.367-.034-.063-.177-.247-.429-.5l-.39-.373-1.449.695.086.546c.052.339.075.546.115.626.063.115.189.115.412.006l.178.345-1.106.528Zm.269-2.465 1.203-.58-1.518-1.58.315 2.16Zm7.99-2.04-4.863-1.855 1.581 2.453.281.402c.131.179.349.19.647-.022l.218.327-1.495.977-.206-.345c.217-.15.349-.276.343-.39-.006-.116-.114-.323-.321-.61l-1.97-3.08c-.217-.31-.349-.488-.452-.534-.092-.057-.258-.005-.493.138l-.206-.316.997-.655 4.862 1.827-1.609-2.476-.292-.397c-.121-.183-.333-.19-.648.035l-.223-.35 1.495-.966.212.333c-.315.219-.407.403-.281.592l.241.425 2.686 4.143-.504.345Z"/><path fill="#00447C" d="m126.745 83.524-.252-.293c.281-.241.355-.448.207-.632l-.31-.38-2.394-2.797-.32-.35c-.144-.179-.373-.156-.659.103l-.241-.305 1.793-1.51.241.304c-.149.143-.252.247-.275.316-.017.051.017.16.109.275l.314.38.98 1.149.189-2.172.006-.523c.005-.23.005-.339-.029-.396-.04-.04-.126-.012-.269.086l-.069.075-.252-.3 1.186-1.01.252.316-.075.063c-.155.132-.235.344-.263.609l-.063.747-.144 1.752 2.99.707.641.109c.241.057.43.017.579-.092l.263.287-1.724 1.442-.234-.293c.086-.103.108-.178.057-.224-.023-.046-.115-.069-.286-.109l-.47-.138-1.947-.534 1.059 1.258.332.35c.149.19.35.179.573-.045l.269.304-1.764 1.471Zm94.535-15.836c-1.632 0-2.898-.724-3.854-2.172-.951-1.453-1.426-3.395-1.426-5.872 0-2.476.475-4.43 1.432-5.877.962-1.431 2.25-2.16 3.911-2.16 1.655 0 2.955.723 3.912 2.154.956 1.436 1.426 3.401 1.426 5.849 0 2.534-.47 4.522-1.432 5.94-.945 1.414-2.268 2.138-3.969 2.138Zm.098-1.04c1.346 0 2.004-2.384 2.004-7.124 0-4.58-.67-6.86-2.033-6.86s-2.027 2.326-2.027 6.98c0 4.66.675 7.004 2.056 7.004Zm8.579-14.668h5.32l3.31 9.032 3.528-9.032h4.485v.994c-.699 0-1.129.109-1.237.367-.121.247-.201.822-.201 1.701v9.204c0 .897.08 1.477.201 1.719.103.252.509.373 1.237.373v.982h-5.722v-.982c.796 0 1.191-.293 1.191-.868l.046-1.224v-9.52l-4.037 10.342h-1.295l-3.842-10.474v9.652l.045 1.224c0 .575.384.868 1.169.868v.982h-4.192v-.982c.715 0 1.128-.115 1.248-.373.12-.242.189-.822.189-1.719v-9.204c0-.879-.069-1.448-.189-1.7-.12-.26-.533-.368-1.248-.368v-.994h-.006Zm19.231 15.346v-.982l.332-.058c.31-.04.59-.373.808-1.011l.344-.977 3.951-12.686h.968l4.146 12.703.413 1.161c.217.569.573.873 1.071.873v.983h-5.366v-.983c.744 0 1.099-.149 1.099-.442 0-.218-.143-.747-.429-1.603l-.413-1.258h-4.009l-.406 1.275c-.269.85-.407 1.38-.407 1.586 0 .293.292.442.888.442v.983h-2.99v-.006Zm3.213-5.28h3.379l-1.735-5.223-1.644 5.223Zm22.021 5.424-7.634-10.486v7.268l.045 1.224c0 .575.459.868 1.375.868v.982h-4.393v-.982c.716 0 1.123-.115 1.249-.374.12-.241.189-.821.189-1.718v-9.204c0-.88-.069-1.46-.189-1.7-.121-.26-.533-.369-1.249-.369v-.994h2.973l7.634 10.48v-7.417l-.052-1.23c0-.569-.458-.844-1.374-.844v-.994h4.404v.994c-.922 0-1.386.275-1.386.844l-.052 1.23V67.47h-1.54Zm13.693-.144v-.982l.349-.058c.315-.04.584-.373.808-1.011l.338-.977 3.957-12.686h.962l4.147 12.703.429 1.161c.212.569.556.873 1.031.873v.983h-5.36v-.983c.733 0 1.105-.149 1.105-.442 0-.218-.138-.747-.43-1.603l-.412-1.258h-4.02l-.396 1.275c-.269.85-.389 1.38-.389 1.586 0 .293.292.442.876.442v.983h-2.995v-.006Zm3.207-5.28h3.373l-1.718-5.223-1.655 5.223Zm11.437 5.28v-.982c.916 0 1.38-.293 1.38-.868l.052-1.224v-9.204l-.052-1.23c0-.569-.464-.844-1.38-.844v-.994h4.507l.579-.012.819-.029.847-.023c2.778 0 4.17 1.242 4.17 3.735 0 2.022-.86 3.396-2.572 4.154l2.096 4.66c.498 1.12 1.042 1.764 1.604 1.925v.936h-3.471l-3.104-6.998h-.985v3.924l.034 1.224c0 .316.052.546.149.638.109.097.43.172 1.02.23v.982h-5.693Zm4.49-14.352v6.372h.475c1.93 0 2.893-1.167 2.893-3.488 0-1.92-.854-2.884-2.555-2.884h-.813Zm9.736 14.352v-.982l.361-.058c.303-.04.561-.373.785-1.011l.349-.977 3.946-12.686h.968l4.152 12.703.412 1.161c.229.569.584.873 1.06.873v.983h-5.367v-.983c.739 0 1.1-.149 1.1-.442 0-.218-.137-.747-.424-1.603l-.412-1.258h-4.021l-.4 1.275c-.258.85-.396 1.38-.396 1.586 0 .293.298.442.877.442v.983h-2.99v-.006Zm3.213-5.28h3.367l-1.729-5.223-1.638 5.223Zm11.425 5.28v-.982c.917 0 1.386-.293 1.386-.868l.04-1.224v-9.204l-.04-1.23c0-.569-.469-.844-1.386-.844v-.994h6.478c2.749 0 4.123 1.143 4.123 3.476 0 1.764-1.099 3.09-3.299 3.981 2.629.592 3.929 1.943 3.929 4.045 0 2.563-1.54 3.844-4.627 3.844h-6.604Zm4.496-8.354h.304c1.827 0 2.749-1.028 2.749-3.091 0-1.942-.951-2.907-2.87-2.907h-.183v5.998Zm0 .988v4.292c0 .92.063 1.5.183 1.724.126.253.499.368 1.094.368 1.398 0 2.062-1 2.062-2.994 0-2.252-.996-3.384-3.035-3.384h-.304v-.006Zm18.275 7.366v-.982c.934 0 1.392-.293 1.392-.868l.051-1.224v-9.204l-.051-1.23c0-.569-.458-.844-1.392-.844v-.994h6.477c2.744 0 4.13 1.143 4.13 3.476 0 1.764-1.117 3.09-3.328 3.981 2.64.592 3.923 1.943 3.923 4.045 0 2.563-1.529 3.844-4.599 3.844h-6.603Zm4.49-8.354h.298c1.827 0 2.76-1.028 2.76-3.091 0-1.942-.939-2.907-2.88-2.907h-.178v5.998Zm0 .988v4.292c0 .92.069 1.5.195 1.724.126.253.492.368 1.088.368 1.375 0 2.073-1 2.073-2.994 0-2.252-1.019-3.384-3.052-3.384h-.304v-.006Zm9.736 7.366v-.982l.361-.058c.309-.04.567-.373.802-1.011l.343-.977 3.941-12.686h.962l4.152 12.703.435 1.161c.218.569.561.873 1.048.873v.983h-5.372v-.983c.739 0 1.088-.149 1.088-.442 0-.218-.137-.747-.412-1.603l-.424-1.258h-4.009l-.401 1.275c-.28.85-.406 1.38-.406 1.586 0 .293.303.442.887.442v.983h-2.995v-.006Zm3.224-5.28h3.356l-1.718-5.223-1.638 5.223Zm22.009 5.424-7.611-10.486v7.268l.04 1.224c0 .575.453.868 1.381.868v.982h-4.399v-.982c.699 0 1.117-.115 1.237-.374.126-.241.195-.821.195-1.718v-9.204c0-.88-.069-1.46-.195-1.7-.12-.26-.538-.369-1.237-.369v-.994h2.972l7.612 10.48v-7.417l-.035-1.23c0-.569-.464-.844-1.386-.844v-.994h4.41v.994c-.922 0-1.386.275-1.386.844l-.063 1.23V67.47h-1.535Zm5.985-.144v-.982c.917 0 1.386-.293 1.386-.868l.035-1.224v-9.204l-.035-1.23c0-.569-.464-.844-1.386-.844v-.994h5.813v.994c-.555.011-.899.069-1.059.138-.155.086-.206.321-.206.706l-.063 1.23v3.815l3.882-3.867.86-.96c.378-.419.572-.672.572-.804 0-.166-.223-.253-.653-.253h-.229v-.994h3.837v.994h-.246c-.504 0-.996.236-1.489.742l-1.311 1.321-3.11 3.108 4.496 6.211 1.019 1.247c.389.512.813.753 1.266.753v.977h-5.521v-.983c.338-.017.521-.132.521-.339 0-.075-.143-.293-.401-.678l-.659-1.017-2.806-4.165h-.028v4.108l.051 1.224c0 .574.378.867 1.168.867v.983h-5.704v-.012ZM226.99 41.603c-.378 0-.687.12-.962.385a1.369 1.369 0 0 0-.395.977c0 .385.143.706.395.994.275.247.59.39.962.39.361 0 .665-.155.922-.402a1.38 1.38 0 0 0 .39-.977c0-.384-.121-.718-.39-.976a1.203 1.203 0 0 0-.922-.391Zm4.536 0c-.378 0-.71.12-.962.385-.258.258-.384.592-.384.977s.12.706.384.994c.258.247.584.39.962.39.372 0 .687-.155.968-.402a1.45 1.45 0 0 0 .384-.977c0-.384-.126-.718-.384-.976-.258-.27-.584-.391-.968-.391Zm26.791-12.6c-.126 0-.229.103-.275.345-.097.442-.172.683-.217.758-.046.12-.27.43-.642.92-.303.413-.446.752-.446 1.005 0 .08 0 .184.034.339.029.15.04.287.04.339 0 .143-.183.253-.55.356-.481.16-.819.293-.979.397-.372.258-.55.585-.55.982 0 .213.063.322.195.322.131 0 .292-.046.487-.144.206-.075.366-.12.458-.12.303 0 .469.321.469.97v2.017h-5.876v-.15h-6.62L230.3 23.063c-.154-.155-.217-.224-.229-.224-.08 0-.137.069-.137.224v.471c0 .546-.338 1.448-1.019 2.775-.676 1.333-1.02 2.207-1.02 2.649 0 .672.195 1.281.579 1.833.137.207.509.62 1.116 1.247l5.137 5.309h-12.456c-.515 0-.899-.098-1.14-.293-.148-.115-.274-.31-.355-.575-.097-.207-.189-.31-.263-.31-.097 0-.269.155-.533.43-.32.374-.481.753-.481 1.173v.344c0 .075-.051.11-.172.11h-.441c-.28 0-.526.091-.761.27-.224.16-.436.316-.642.477-.2.143-.492.252-.905.333-.303.029-.435.115-.435.258 0 .184.126.259.384.259h23.739l-9.192-9.641c-.453-.477-.688-.897-.688-1.276 0-.247.229-.77.659-1.626 8.694 8.963 12.783 13.152 12.244 12.543h15.257V29.307c.012-.195-.074-.304-.229-.304Zm-3.236 12.721c-.395 0-.733.12-1.008.413a1.444 1.444 0 0 0-.423 1.046c0 .397.149.753.423 1.046.27.299.613.454 1.008.454.401 0 .733-.15 1.008-.431a1.51 1.51 0 0 0 .413-1.069 1.4 1.4 0 0 0-.43-1.046c-.269-.287-.601-.413-.991-.413Zm43.864-23.316c-.046 0-.561 1.023-1.489 3.091-.023.063-.241.195-.642.333-.475.201-.819.391-1.048.586-.338.27-.526.61-.526 1.023 0 .138.097.213.246.213.091 0 .212-.04.378-.133.149-.063.269-.103.361-.103.504 0 .756.35.756 1.046v12.893h-8.929c-.132-.167-.349-.322-.664-.408-.281-.098-.504-.224-.642-.362 1.34-.781 2.497-1.178 3.482-1.178h.613c.275.017.481.04.63.04.206 0 .292-.04.292-.16 0-.644-.561-1.431-1.672-2.414-.687-.586-1.357-1.04-2.039-1.327-.418-.155-.63-.316-.63-.5 0-.063.012-.16.034-.293.035-.138.041-.23.041-.304 0-.718-.235-1.345-.699-1.92-.401-.488-.802-.964-1.203-1.464-.12-.184-.189-.546-.223-1.104-.006-.442-.098-.655-.252-.655-.183 0-.315.213-.367.633-.046.603-.114.959-.206 1.12-.344.327-.693.66-1.071 1-.561.591-.865 1.172-.865 1.775 0 .092.035.23.058.42.034.189.051.321.051.402 0 .19-.378.522-1.14 1.005-1.065.667-1.763 1.143-2.13 1.454-.767.66-1.157 1.287-1.157 1.89 0 .138.075.207.252.207.12 0 .287-.023.504-.07.212-.04.378-.068.475-.068.865 0 1.604.132 2.194.373.349.144.836.431 1.455.891-.166.178-.436.35-.785.494-.355.155-.607.333-.773.523h-12.617a6.652 6.652 0 0 0-.51-1.276c-.452-.678-.904-1.344-1.357-2.016-.51-.753-.75-1.483-.75-2.195 0-.115.011-.264.051-.489.041-.206.046-.373.046-.476 0-.173-.046-.265-.137-.265-.195 0-.493.34-.831.983-.343.678-.521 1.24-.521 1.735 0 .08.006.247.029.46v.505c0 .07-.309.293-.928.742-.607.425-.911.85-.911 1.264 0 .19.046.287.172.287.132 0 .315-.012.573-.058.235-.04.435-.04.55-.04.624 0 1.174.31 1.735.89.521.61.796 1.288.796 2.029 0 2.022-.939 3.54-2.818 4.528-.641.333-1.529.54-2.657.643-.842.08-1.26.23-1.26.488 0 .328.59.5 1.718.5 1.89 0 3.442-.39 4.696-1.183 1.558-.983 2.4-2.511 2.532-4.568h13.487a16.182 16.182 0 0 1 2.285-2.528c.733.7 1.163 1.12 1.271 1.264.109.143.327.574.699 1.258h12.285V18.891c-.017-.34-.121-.483-.298-.483Zm-13.9 16.53c-.738-.517-1.701-1.017-2.898-1.47.459-.208.94-.438 1.398-.644.475-.219.721-.385.721-.494 0-.08-.017-.196-.057-.328a1.157 1.157 0 0 1-.051-.339c0-.46.286-1.028.864-1.695.545.66.814 1.207.814 1.695 0 .104-.017.23-.058.414a1.57 1.57 0 0 0-.057.385c0 .16.103.304.332.39.613.253.957.403 1.054.443.252.184.447.333.561.402-1.042.431-1.907.827-2.623 1.241ZM305.027 18c-.138 0-.252.11-.309.35-.126.472-.201.707-.206.753-.069.092-.27.402-.636.937-.298.39-.441.735-.441.994 0 .074.011.172.04.333.017.138.023.264.023.356 0 .115-.166.247-.544.362-.498.155-.836.299-1.014.397-.372.264-.544.574-.544.988 0 .2.086.31.241.31.114 0 .28-.052.481-.143.183-.093.355-.15.446-.15.31 0 .481.328.481.977v15.37h2.182V18.298c.006-.201-.068-.299-.2-.299Zm16.929 16.036c-.452-.804-.664-1.563-.664-2.218 0-.39.091-.787.303-1.149.189-.373.292-.586.292-.65 0-.091-.051-.154-.148-.154-.384 0-.808.35-1.272 1.028-.469.701-.693 1.373-.693 2.046 0 .057.017.132.023.24v.242c0 .259-.149.385-.407.385h-.337c-.39 0-.751.167-1.083.5-.343.316-.521.632-.521.942 0 .15.092.23.292.23a1.5 1.5 0 0 0 .458-.086 2.94 2.94 0 0 1 .447-.058c.83 0 1.523.449 2.085 1.34.561.907.847 1.913.847 3.062 0 1.04-.378 1.965-1.157 2.74-.767.77-1.695 1.172-2.806 1.172-1.311 0-2.371-.47-3.207-1.407-.739-.88-1.134-1.93-1.134-3.155 0-1.005.315-1.999.933-3.045.59-.85 1.203-1.7 1.782-2.574.63-1.017.939-2.022.939-3.016a2.83 2.83 0 0 0-.561-1.73c-.378-.523-.842-.787-1.392-.787-.407 0-.722.138-.997.408-.263.264-.389.62-.389 1.029 0 .379.126.724.389 1.01.275.288.613.415 1.054.415.304 0 .693-.19 1.18-.61.092.253.155.437.155.552 0 .718-.344 1.569-1.048 2.517-.699.948-1.375 1.861-2.039 2.758-.705 1.189-1.066 2.35-1.066 3.499 0 1.746.608 3.229 1.77 4.516 1.186 1.27 2.629 1.901 4.318 1.901 1.547 0 2.87-.586 3.963-1.74 1.094-1.155 1.638-2.638 1.638-4.488 0-1.16-.223-2.275-.675-3.327-.046-.097-.47-.89-1.272-2.338Zm41.75 5.217c-.172-.034-.343-.075-.509-.11-.252-.097-.585-.327-1.037-.694-.315-.276-.653-.414-.945-.414h-.298c-.131.023-.212.023-.292.023-.172 0-.286-.08-.286-.224 0-.029.04-.167.114-.443.052-.264.075-.528.075-.73 0-.62-.115-.93-.361-.93-.074 0-.212.144-.395.442-.235.35-.47.638-.693.805-.384.299-.813.436-1.329.436-.676 0-1.26-.2-1.741-.637-.527-.449-.779-1.052-.779-1.793 0-.712.224-1.316.693-1.844.453-.529 1.048-.782 1.77-.782a2.47 2.47 0 0 1 1.575.54l.653.529c.097 0 .149-.103.149-.333 0-.489-.189-.948-.539-1.345-.378-.39-.55-.62-.55-.683 0-.127.121-.328.344-.58.275-.363.481-.696.59-1.024.235-.557.349-1.212.349-1.993 0-.259-.045-.552-.131-.787-.092-.293-.201-.437-.35-.437-.137 0-.206.098-.206.299v.442c0 1.241-.464 2.143-1.397 2.73-1.111.344-2.211.706-3.311 1.05-1.609.73-2.411 2.035-2.411 3.92 0 .528.103 1.068.321 1.59.223.535.344.817.344.834 0 .155-.206.241-.602.241h-3.865c-.086-.712-.459-1.379-1.203-2.04-.39-.333-1.019-.706-1.913-1.108-.704-.328-1.231-.736-1.558-1.23-.086-.115-.149-.31-.194-.609-.012-.23-.058-.345-.149-.345-.143 0-.327.144-.516.449-.28.373-.401.764-.401 1.166 0 .069.035.172.063.327.046.144.063.247.063.31 0 .093-.24.386-.744.88-.613.574-1.077 1.292-1.386 2.2h-11.082V18.293c0-.195-.08-.293-.206-.293-.143 0-.258.11-.309.35-.115.472-.201.707-.207.753-.051.115-.274.42-.67.937-.286.39-.429.735-.429.994 0 .074.006.172.04.333.017.138.029.264.029.356 0 .115-.172.247-.556.362a6.614 6.614 0 0 0-.991.397c-.361.264-.527.574-.527.988 0 .2.063.31.195.31s.275-.052.498-.143c.212-.093.355-.15.464-.15.304 0 .447.328.447.977v15.37h13.516c.441.827.888 1.436 1.328 1.832.321.276.693.489 1.169.707.492.207.842.368 1.042.529.298.287.498.632.59 1.08.052.327.143.494.298.494.229 0 .452-.333.653-1 .235-.793.429-1.264.567-1.413.395-.322.801-.615 1.197-.925.469-.403.738-.85.864-1.299h14.822c.344 0 .521-.086.521-.281-.006-.167-.097-.27-.275-.305Zm-17.902.195a1.51 1.51 0 0 1-1.14.5c-.435 0-.813-.172-1.134-.5a1.554 1.554 0 0 1-.481-1.154c0-.431.154-.828.475-1.132a1.52 1.52 0 0 1 1.146-.483c.446 0 .836.16 1.139.483.321.304.487.7.487 1.132a1.636 1.636 0 0 1-.492 1.154Zm29.729-5.487 8.361.018c.275 0 .407-.058.407-.184 0-.064-.286-.414-.842-1.029-.567-.632-.882-.96-.956-.96 0 0-.138.098-.361.3a1.145 1.145 0 0 1-.75.298c-.739 0-1.112-.362-1.112-1.04 0-.31.115-.563.321-.758a.981.981 0 0 1 .733-.305c.304 0 .556.092.728.282.166.184.297.27.36.27.138 0 .201-.092.201-.247 0-.218-.08-.431-.212-.672-.149-.242-.206-.357-.206-.397 0 0 .12-.218.395-.632.281-.408.407-.89.407-1.436 0-.494-.075-.741-.241-.741-.052 0-.126.218-.258.695-.137.523-.389.908-.761 1.183-.573.236-1.186.466-1.77.69-.819.368-1.249.965-1.249 1.804 0 .299.132.718.453 1.304h-.395c-.481 0-.773-.138-.894-.425-.137-.276-.246-.408-.343-.408-.195 0-.315.207-.39.62-.068.414-.16.627-.257.627a.988.988 0 0 1-.167-.029c-.063-.006-.114-.017-.148-.017-.041 0-.321.138-.837.46-.515.304-.778.477-.778.477-.018.166.177.252.561.252Zm27.427-6.446c.372 0 .71-.144.967-.42a1.46 1.46 0 0 0 .407-1.051c0-.385-.12-.741-.407-1.023a1.296 1.296 0 0 0-.967-.42c-.384 0-.705.144-1.003.42a1.383 1.383 0 0 0-.429 1.023c0 .408.137.747.429 1.034.298.282.619.437 1.003.437Zm6.631 14.209c-.389 0-.727.12-.996.413-.292.282-.424.627-.424 1.046 0 .397.132.753.424 1.046.269.299.607.454.996.454.419 0 .762-.15 1.026-.431.263-.288.395-.644.395-1.069 0-.42-.132-.764-.413-1.046-.274-.287-.607-.413-1.008-.413Z"/><path fill="#00447C" d="M412.839 29.003c-.126 0-.224.103-.269.345-.115.442-.178.683-.218.758-.04.12-.275.43-.659.92-.298.413-.435.752-.435 1.005 0 .08.023.184.034.339.035.15.04.287.04.339 0 .143-.171.253-.544.356-.475.16-.824.293-.996.397-.355.258-.544.585-.544.982 0 .213.074.322.217.322.121 0 .281-.046.476-.144.189-.075.355-.12.447-.12.32 0 .481.321.481.97v2.017h-6.506v-8.015c0-.241-.063-.339-.218-.339-.052 0-.275.448-.693 1.339-.412.873-.624 1.344-.624 1.413v.535c0 .344-.367.672-1.083.994-.704.362-1.053.804-1.053 1.367 0 .11.057.172.177.172.098 0 .206-.034.372-.097a.972.972 0 0 1 .39-.098c.355 0 .538.287.538.885v1.689h-12.101V19.178c0-.512-.08-.753-.206-.753-.063 0-.321.466-.756 1.39-.418.954-.63 1.535-.63 1.782 0 .057.006.143.028.275.023.133.023.242.023.317 0 .12-.343.31-1.065.609-.704.27-1.048.666-1.048 1.189 0 .092.034.155.12.155.063 0 .172-.029.327-.069a.777.777 0 0 1 .326-.086c.287 0 .481.075.573.207.097.15.126.42.126.839V37.34h-11.214c-.481 0-.819-.11-1.036-.334-.115-.109-.212-.316-.304-.637-.074-.201-.16-.305-.269-.305-.275 0-.561.356-.836 1.057a8.52 8.52 0 0 0-.138.77c-.034.236-.103.334-.246.334-.051 0-.143 0-.246-.018a1.265 1.265 0 0 0-.223-.023c-.378 0-.659.098-.848.259-.206.16-.384.339-.55.471-.298.132-.658.27-1.122.362-.258.052-.384.144-.384.328 0 .149.235.224.681.224h41.911v-10.52c.017-.196-.057-.305-.223-.305Zm-58.542-4.689-.229-.97c1.059-.11 1.638-.167 1.695-.196.229-.052.641-.201 1.243-.477l.372-.316v-.08c-1.386 0-2.085-.512-2.085-1.569 0-.81.504-1.373 1.495-1.626 1.134.196 1.69.805 1.69 1.856-.006 1.954-1.392 3.074-4.181 3.378Z"/></svg>